<svg width="1979" height="800" viewBox="0 0 1979 800" fill="none" xmlns="http://www.w3.org/2000/svg">
<rect width="1978.37" height="800" fill="white"/>
<g clip-path="url(#clip0_3521_2)">
<path d="M834.302 127.03C842.754 139.343 848.654 155.515 853.293 169.604C869.569 219.552 877.461 271.851 876.651 324.378C875.31 414.425 843.568 500.335 778.101 563.303C727.651 611.829 665.592 642.302 599.011 662.172C590.498 664.705 581.932 667.06 573.317 669.234C560.905 672.385 557.004 673.013 544.268 672.805C558.452 620.341 555.695 567.412 516.421 526.169C505.358 514.547 492.423 504.599 478.395 496.79C473.101 493.844 465.517 492.208 459.804 490.087C434.936 482.192 412.611 478.424 386.655 477.625C331.682 478.064 287.329 500.49 258.11 548.046C253.99 554.752 250.956 562.054 247.985 569.309C245.348 564.632 242.155 558.653 240.656 553.514C233.89 530.35 229.119 501.437 233.995 477.64C242.847 434.439 282.298 405.34 316.804 382.638C319.183 362.221 326.518 352.749 344.123 341.538C366.85 327.065 392.977 317.202 418.331 308.343C463.122 292.693 509.156 280.45 555.064 268.587C572.972 263.931 591.918 259.904 609.678 255.079C685.969 234.357 775.185 208.915 824.619 142.602C828.197 137.802 831.322 132.208 834.302 127.03Z" fill="black"/>
<path d="M785.385 193.166C792.44 187.652 801.627 179.911 808.886 174.974C811.541 173.17 823.753 169.981 827.502 168.929C825.511 177.028 822.557 187.361 819.046 194.949C801.638 202.65 787.127 209.758 770.809 219.889C764.746 223.654 757.335 229.335 751.647 232.637C749.383 234.316 747.224 235.967 744.819 237.45C740.801 240.788 736.363 243.957 732.11 247.159C699.187 271.942 669.487 304.056 630.133 318.641C627.278 319.698 622.809 321.392 619.95 321.905C606.859 325.045 593.328 327.4 580.139 330.175C568.859 332.548 557.352 333.918 546.055 336.351C517.553 342.714 489.153 349.524 460.864 356.776C414.703 368.868 371.189 382.381 328.8 404.592C327.356 405.349 325.689 406.254 324.23 406.921C320.147 406.936 296.364 409.397 295.1 408.826C305.287 400.858 315.926 394.447 326.011 386.797C326.073 382.457 325.899 378.88 326.735 374.605C335.363 368.086 349.422 360.346 359.011 355.603C395.35 337.854 431.186 326.024 471.219 319.771C478.21 318.68 487.305 316.76 494.173 316.153C497.087 315.321 510.157 313.447 513.624 312.876L551.06 306.563C552.002 306.219 556.355 305.388 557.527 305.137C562.797 304.008 568.035 303.013 573.284 301.736C590.477 297.676 607.382 292.489 623.889 286.209C646.08 277.532 666.025 267.018 685.032 252.724C690.155 248.861 695.226 244.929 700.244 240.931C709.866 233.266 710.722 232.604 722.215 227.735C727.434 225.522 732.607 223.199 737.73 220.768C755.941 212.077 768.893 204.285 785.385 193.166Z" fill="#6E92DA"/>
<path d="M494.166 316.152C497.267 316.486 498.221 316.096 501.236 315.653C492.255 320.304 481.045 324.654 471.647 328.87C460.716 333.841 450.009 339.292 439.559 345.206L442.526 345.408C423.736 348.509 404.853 351.023 385.906 352.948C377.059 353.893 367.747 354.565 359.004 355.603C395.343 337.854 431.178 326.024 471.212 319.771C478.203 318.679 487.298 316.759 494.166 316.152Z" fill="#244392"/>
<path d="M785.413 193.166C792.468 187.652 801.655 179.911 808.915 174.974C811.569 173.17 823.782 169.981 827.531 168.929C825.539 177.028 822.585 187.361 819.075 194.949C801.667 202.65 787.155 209.758 770.837 219.889C764.775 223.654 757.364 229.335 751.676 232.637C753.122 230.655 757.288 228.189 759.458 226.345C769.478 217.827 783.895 207.178 785.413 193.166Z" fill="#3359BD"/>
<path d="M494.176 316.158C497.09 315.326 510.159 313.452 513.626 312.881L551.062 306.568C545.647 309.974 537.085 314.033 531.291 316.788C503.172 330.388 473.302 340.022 442.536 345.414L439.568 345.212C450.019 339.298 460.725 333.847 471.656 328.875C481.055 324.66 492.265 320.31 501.246 315.659C498.23 316.102 497.277 316.492 494.176 316.158Z" fill="#3359BD"/>
<path d="M619.936 321.909C627.434 316.591 636.325 311.042 644.069 305.832L702.297 266.413L730.687 246.811C733.315 244.991 742.506 238.311 744.805 237.455C740.787 240.792 736.349 243.962 732.096 247.164C699.173 271.947 669.472 304.061 630.119 318.645C627.263 319.703 622.795 321.397 619.936 321.909Z" fill="#6E92DA"/>
<path d="M581.532 400.787C585.406 387.139 591.601 381.643 603.598 374.26C621.794 363.062 643.712 361.007 663.374 369.679C674.53 374.6 689.106 383.427 695.498 394.172C712.441 416.726 714.016 449.759 710.271 476.908C709.915 479.494 709.173 484.334 708.476 486.67C708.389 487.454 708.271 488.23 708.12 489.003C696.574 547.779 657.69 598.766 608.88 632.25C633.988 603.492 652.388 576.878 660.416 538.979C667.699 504.616 667.085 460.359 640.584 433.991C646.303 417.722 638.089 399.564 619.026 398.545C616.935 398.432 615.458 399.477 613.944 399.628C606.173 400.416 600.099 416.31 610.554 416.62C614.663 416.556 613.599 410.046 615.065 409.179C626.24 402.575 635.188 418.059 633.435 426.546C629.383 446.139 596.857 450.543 586.265 434.646C579.256 424.126 579.301 412.784 581.532 400.787Z" fill="#244392"/>
<path d="M581.531 400.787C585.405 387.139 591.601 381.643 603.598 374.26C621.794 363.062 643.712 361.007 663.374 369.679C674.53 374.6 689.106 383.427 695.498 394.172C696.744 400.95 686.712 402.597 681.929 403.908C679.676 404.525 678.695 405.104 676.988 406.668C675.14 406.127 675.079 405.21 673.042 404.851C662.506 397.47 653.827 392.047 640.819 389.597C630.556 387.662 616.462 386.904 606.975 392.138C597.001 397.644 594.384 403.533 581.531 400.787Z" fill="#9CB7EE"/>
<path d="M695.507 394.174C712.45 416.729 714.025 449.762 710.28 476.91C709.924 479.496 709.182 484.336 708.485 486.673L705.91 483.185C705.807 479.625 705.611 476.069 705.311 472.517C703.573 452.011 698.885 432.8 685.354 416.498C681.704 412.101 677.402 408.515 673.051 404.853C675.088 405.213 675.149 406.129 676.997 406.671C678.705 405.107 679.685 404.527 681.939 403.91C686.721 402.6 696.753 400.952 695.507 394.174Z" fill="#9CB7EE"/>
<path d="M298.25 474.101C320.064 453.925 344.493 436.774 370.88 423.107C374.737 421.07 385.085 415.533 388.978 414.25C397.867 411.326 414.034 408.323 423.074 408.679C442.647 409.766 459.147 423.418 476.205 431.692C480.809 433.926 487.498 435.68 492.539 436.835C524.867 444.246 553.679 435.555 571.59 406.18C569.984 421.626 573.404 437.52 586.344 447.324C582.345 451.463 580.072 454.629 577.342 459.768C551.87 470.034 534.516 475.919 506.253 474.378C488.407 473.405 479.815 471.848 462.352 466.687L467.099 462.317L535.505 462.298C536.583 462.305 539.504 462.29 540.404 462.597C542.525 463.332 544.467 464.49 546.813 464.328C553.981 463.824 554.873 453.736 549.675 449.899C545.536 446.847 541.373 449.456 538.767 452.857L538.463 453.262C530.193 453.262 466.753 452.433 463.381 453.902C460.121 455.326 455.24 461.014 452.487 463.676C449.845 463.051 447.187 462.089 444.629 461.181C435.483 457.931 426.552 454.091 417.208 451.422C416.963 451.35 416.745 451.009 416.598 450.808C421.072 449.46 434.227 436.956 438.648 433.199C443.443 433.139 448.21 431.245 447.844 425.659C447.71 423.361 446.644 421.221 444.893 419.729C438.884 414.7 432.435 419.214 432.434 426.712C426.874 431.495 420.604 437.13 414.971 441.705L367.343 441.697C360.108 441.697 350.633 441.292 343.581 442.284C342.148 442.488 339.97 444.867 338.871 445.908C329.65 454.656 320.063 465.638 310.811 474.117L298.25 474.101Z" fill="#6E92DA"/>
<path d="M462.347 466.688C479.81 471.85 488.402 473.406 506.248 474.379C534.511 475.921 551.864 470.036 577.337 459.77C573.565 468.385 572.168 476.561 575.667 485.626C578.003 491.867 582.767 496.9 588.872 499.581C593.878 501.766 598.017 501.891 603.345 501.175C619.163 535.746 610.995 581.571 598.18 615.926C594.253 626.446 587.429 640.84 578.647 648.304C575.746 650.765 568.23 654.408 564.673 656.025L564.072 656.298C579.23 630.339 587.13 593.598 579.598 564.019C577.329 555.101 572.342 543.729 566.036 536.897C576.53 526.62 576.86 512.794 568.888 500.823C558.978 485.948 537.126 483.445 524.52 496.226C519.841 500.948 517.51 506.443 515.626 512.779C512.666 510.078 510.207 507.943 507.074 505.417C511.184 501.475 515.267 497.498 519.52 493.711C521.145 492.265 524.082 492.136 525.385 490.527C527.974 487.334 528.241 482.87 525.201 479.893C523.56 478.284 521.322 477.439 519.028 477.557C514.305 477.841 511.479 482.033 512.098 486.554C512.168 487.039 512.253 487.52 512.353 487.997L499.839 499.907C495.457 496.764 486.081 490.299 481.304 488.205C472.216 484.222 459.95 480.677 450.32 477.931L462.347 466.688Z" fill="#375CBF"/>
<path d="M633.55 443.885L635.682 441.802C661.24 470.431 659.036 520.921 646.63 555.128C640.874 574.248 628.987 593.251 616.77 608.777C613.646 612.746 609.007 618.949 605.387 622.35C619.675 583.004 629.093 537.349 611.495 497.405C617.266 493.209 621.061 486.389 620.144 478.83C619.266 471.578 609.374 465.023 603.012 470.488C602.05 471.317 601.528 472.074 601.46 473.415C602.683 477.255 607.606 476.971 610.844 479.254C614.536 487.536 600.922 495 593.958 492.031C590.141 490.827 587.001 487.953 584.934 484.552C579.049 474.869 585.608 456.927 595.617 451.795C609.549 455.624 622.189 452.401 633.55 443.885Z" fill="#244392"/>
<path d="M633.532 443.885L635.664 441.802C661.222 470.431 659.018 520.921 646.612 555.128C646.18 552.307 647.869 542.723 648.172 539.027C649.142 528.23 648.759 517.35 647.033 506.645C645.018 494.693 641 482.572 636.293 471.404C634.373 466.848 630.635 463.819 629.711 458.873C628.552 452.647 630.291 448.8 633.532 443.885Z" fill="#6E92DA"/>
<path d="M761.446 384.371L791.7 401.984L791.522 410.44C791.526 421.028 791.469 431.62 791.355 442.208C784.255 446.302 777.116 450.331 769.944 454.292C767.945 455.709 763.271 458.163 760.969 459.454C750.332 453.501 739.327 446.825 728.754 440.648C728.939 428.034 729.042 415.416 729.064 402.798L761.446 384.371Z" fill="#375CBF"/>
<path d="M791.546 410.444C791.55 421.032 791.493 431.624 791.38 442.213C784.279 446.306 777.141 450.336 769.969 454.297L769.779 453.668C770.654 451.025 778.413 435.96 780.072 432.795C782.409 428.326 789.206 413.758 791.546 410.444Z" fill="#9CB7EE"/>
<path d="M829.754 256.212L844.928 265.107C850.873 268.569 857.201 272.115 863.041 275.697C862.912 288.478 862.685 301.367 862.696 314.138L832.999 331.021L827.989 328.133L799.693 311.584L800.046 273.062C809.842 267.766 819.968 261.722 829.754 256.212Z" fill="#244392"/>
<path d="M844.929 265.104C850.874 268.565 857.202 272.112 863.042 275.694C862.913 288.474 862.686 301.363 862.697 314.134L833 331.017L827.99 328.13C829.395 322.302 832.429 313.849 834.216 307.599C838.245 293.553 841.816 279.381 844.929 265.104Z" fill="#9CB7EE"/>
<path d="M722.513 318.745C725.694 319.552 750.922 335.086 755.568 337.813L755.247 376.842L726.069 393.475L692.736 374.024C692.941 361.189 693.035 348.352 693.024 335.515L722.513 318.745Z" fill="#244392"/>
<path d="M794.821 319.856C804.414 325.03 815.361 331.803 824.904 337.371L828.21 339.367L827.839 377.564L800.699 392.98L797.828 394.627C787.997 388.378 775.523 381.544 765.295 375.568L765.662 336.47C775.054 330.878 785.275 325.295 794.821 319.856Z" fill="#375CBF"/>
<path d="M824.877 337.37L828.183 339.366L827.812 377.563L800.671 392.978C800.603 392.736 800.535 392.494 800.463 392.251C805.31 382.382 811.513 369.753 815.773 359.956C819.443 351.514 821.847 344.929 824.877 337.37Z" fill="#9CB7EE"/>
<path d="M351.53 404.165C353.627 405.305 389.74 401.01 395.494 400.874C387.163 405.142 378.661 408.898 370.327 413.291C335.039 431.866 301.029 454.712 275.454 485.716C273.454 488.143 267.338 497.334 265.658 498.428C257.468 503.756 249.368 508.679 241.786 515.076C241.304 508.573 239.781 494.581 241.934 488.598C243.029 485.56 249.347 477.854 251.824 475.056C274.506 449.403 304.061 427.788 334.45 412.235C337.538 410.652 348.525 405.108 351.53 404.165Z" fill="#6E92DA"/>
<path d="M795.937 450.523L829.315 470.041C829.322 471.185 829.356 478.107 829.258 478.599C827.459 487.537 805.385 520.479 799.754 525.318C797.6 524.909 769.622 508.099 766.426 506.24L766.77 467.171C775.867 461.63 786.591 455.852 795.937 450.523Z" fill="#6E92DA"/>
<path d="M830.971 387.039C832.743 387.796 837.981 391 839.836 392.087L858.119 402.796C853.764 421.81 847.694 440.389 839.984 458.305C838.166 459.437 836.042 460.611 834.171 461.705L830.471 459.551C821.474 453.901 810.151 447.698 800.865 442.271L801.168 403.993C810.632 398.297 821.28 392.572 830.971 387.039Z" fill="#9CB7EE"/>
<path d="M775.39 261.174C777.34 261.204 787.928 267.929 790.473 269.46L790.215 311.541C780.313 317.436 769.558 323.315 759.485 329.011L749.26 323.032L727.58 310.35C727.709 303.214 727.796 296.077 727.838 288.94C744.489 281.125 760.401 271.833 775.39 261.174Z" fill="#375CBF"/>
<path d="M555.636 378.997C561.052 377.465 567.803 374.757 573.408 373.006C582.031 370.313 587.965 369.143 596.823 367.868C579.608 379.534 570.799 390.354 559.771 407.433C552.094 419.328 534.701 429.613 520.236 430.011C510.277 431.991 488.828 427.86 480.119 423.584C460.393 413.898 444.555 400.117 421.217 399.685C424.657 398.182 428.139 396.777 431.66 395.474C441.429 391.513 451.597 387.972 461.534 384.424C462.423 386.34 463.59 388.503 464.56 390.411C471.612 401.283 480.131 408.656 492.629 412.599C505.326 416.484 519.036 415.268 530.852 409.213C543.27 402.722 551.516 392.271 555.636 378.997Z" fill="#FDE12A"/>
<path d="M421.217 399.688C424.657 398.184 428.139 396.779 431.66 395.477C433.013 396.151 433.752 395.882 435.335 395.7C436.516 396.321 437.035 396.764 437.901 397.264C442.91 400.153 449.501 402.744 454.821 405.08C467.225 410.67 479.571 416.384 491.857 422.223C494.562 423.503 504.4 427.453 505.848 429.089C509.113 429.896 518.962 429.434 520.236 430.013C510.277 431.994 488.828 427.862 480.119 423.587C460.393 413.9 444.555 400.119 421.217 399.688Z" fill="#FEEB4E"/>
<path d="M431.689 395.483C441.459 391.522 451.626 387.981 461.563 384.433C462.453 386.349 463.619 388.511 464.59 390.42C457.976 392.468 442.634 394.563 435.364 395.706C433.782 395.888 433.042 396.157 431.689 395.483Z" fill="#FEEE97"/>
<path d="M376.268 334.5C453.398 300.332 543.496 281.458 624.866 260.244C614.804 267.208 604.632 274.005 594.347 280.632C591.276 282.62 581.525 288.585 579.336 290.524C565.003 294.776 546.733 297.731 531.922 300.374C506.428 304.923 480.453 308.331 455.024 313.154C441.941 315.65 429.01 318.89 416.294 322.856C410.001 324.792 402.586 327.531 396.503 329.242C393.968 328.165 381.938 334.999 378.567 335.158C377.815 335.193 376.94 334.654 376.268 334.5Z" fill="#244392"/>
<path d="M762.143 514.906C763.537 515.251 789.359 530.315 790.791 531.663C791.514 532.345 791.722 533.038 791.62 534.019C790.904 540.831 758.621 569.025 752.043 574.58L743.477 581.48L728.754 572.872C728.955 559.826 729.049 546.784 729.046 533.738C739.569 527.418 751.388 521.018 762.143 514.906Z" fill="#6E92DA"/>
<path d="M541.209 497.213C548.314 496.584 554.795 497.913 559.913 503.718C565.966 510.58 567.77 523.111 560.607 529.897C559.124 531.389 553.476 532.844 552.304 530.541C550.503 526.735 556.056 520.491 549.016 519.43C547.44 519.086 545.129 520.51 544.335 521.877C538.218 532.431 546.967 540.974 557.559 540.993C577.316 562.306 575.755 596.479 568.536 622.775C566.648 630.072 562.611 639.914 559.198 646.564C564.826 605.764 558.734 567.388 534.393 533.718C532.423 530.363 525.089 523.937 524.523 520.324C522.737 508.922 531.729 499.443 541.209 497.213Z" fill="#244392"/>
<path d="M346.919 450.657L394.155 450.634C399.708 450.634 411.901 450.267 416.595 450.809C416.742 451.009 416.96 451.35 417.206 451.422C426.55 454.092 435.48 457.932 444.627 461.181C447.185 462.09 449.842 463.052 452.484 463.676C448.274 467.414 444.051 471.512 439.834 475.336C403.144 466.911 363.716 465.112 327.886 478.313C323.288 480.055 318.769 482.001 314.344 484.141C312.123 485.235 303.295 490.253 301.631 490.401C296.384 490.863 288.447 490.635 282.971 490.601C285.163 488.197 287.373 485.603 289.532 483.149C294.481 483.073 310.152 483.88 314.696 482.312C316.351 481.744 324.865 472.833 326.884 470.803L346.919 450.657Z" fill="#3359BD"/>
<path d="M720.983 450.726L723.94 448.916C734.684 455.399 745.882 461.754 756.746 468.081L756.64 479.2C756.652 488.519 756.602 497.839 756.496 507.159C752.263 509.552 746.965 512.756 742.716 514.899C740.792 516.652 729.988 522.249 727.163 523.828L710.523 514.081C717.499 493.689 721.036 472.277 720.983 450.726Z" fill="#375CBF"/>
<path d="M742.715 514.902C739.238 509.657 752.288 484.077 756.639 479.203C756.651 488.523 756.601 497.842 756.495 507.162C752.262 509.555 746.964 512.759 742.715 514.902Z" fill="#6E92DA"/>
<path d="M470.045 381.598C481.116 377.929 492.252 374.459 503.447 371.189C506.438 370.32 509.501 369.398 512.51 368.613C524.633 365.45 536.338 361.077 548.145 356.914L548.796 362.46C548.776 369.46 548.322 374.422 545.544 380.973C543.536 385.323 540.484 390.735 536.711 393.825C536.149 394.783 533.747 396.756 532.77 397.506C523.938 404.273 512.75 407.196 501.736 405.606C489.972 403.925 481.028 397.858 473.984 388.508C472.303 386.032 471.415 384.278 470.045 381.598Z" fill="#FEE846"/>
<path d="M470.045 381.598C481.116 377.929 492.252 374.459 503.447 371.189C506.438 370.32 509.501 369.398 512.51 368.613C524.633 365.45 536.338 361.077 548.145 356.914L548.796 362.46C548.776 369.46 548.322 374.422 545.544 380.973C542.682 380.64 540.816 380.538 537.93 380.484C530.029 379.043 514.282 380.098 505.989 381.436C503.119 381.899 496.57 383.433 494.065 383.289C487.228 385.153 480.865 386.831 473.984 388.508C472.303 386.032 471.415 384.278 470.045 381.598Z" fill="#FEFBDB"/>
<path d="M494.061 383.293C498.194 381.333 511.276 377.433 516.566 375.515C527.743 371.463 537.908 366.75 548.791 362.463C548.771 369.463 548.317 374.425 545.539 380.976C542.677 380.643 540.811 380.541 537.925 380.487C530.024 379.046 514.278 380.101 505.984 381.439C503.114 381.902 496.566 383.436 494.061 383.293Z" fill="#FEEE97"/>
<path d="M537.944 380.48C540.83 380.534 542.696 380.636 545.558 380.969C543.55 385.32 540.498 390.732 536.725 393.822C537.999 390.076 544.913 385.097 542.752 381.459C540.235 381.071 536.663 380.973 534.035 380.829C534.85 380.538 536.976 380.529 537.944 380.48Z" fill="#FEEB4E"/>
<path d="M811.902 208.25C812.175 208.543 812.038 208.33 812.046 209C785.977 254.173 731.597 278.907 685.351 297.848C685.113 297.675 685.26 297.814 685.098 297.298C728.079 262.839 760.87 232.096 811.902 208.25Z" fill="#9CB7EE"/>
<path d="M351.486 404.166C399.023 380.408 461.123 366.014 512.934 353.702C525.856 350.632 546.615 345.137 559.201 343.494C530.359 354.956 499.902 362.345 470.505 371.996C452.728 377.799 435.161 384.228 417.839 391.279C410.34 394.32 402.82 397.967 395.45 400.875C389.696 401.012 353.583 405.306 351.486 404.166Z" fill="#9CB7EE"/>
<path d="M571.172 349.201C575.962 347.87 580.779 347.343 585.687 346.685C607.882 343.705 635.594 346.33 655.317 357.458C633.16 352.811 616.281 355.822 596.851 367.872C587.993 369.147 582.059 370.317 573.436 373.01C567.831 374.76 561.08 377.468 555.664 379C557.773 372.545 558.233 364.577 557.136 357.881C556.832 356.353 556.404 355.078 557.131 353.796C560.508 352.103 567.481 350.16 571.172 349.201Z" fill="#FFF7D3"/>
<path d="M571.155 349.203L571.924 349.646C571.492 351.613 559.444 357.086 557.119 357.883C556.816 356.355 556.388 355.08 557.115 353.798C560.491 352.105 567.464 350.162 571.155 349.203Z" fill="#FEFBDB"/>
<path d="M867.287 322.656C868.044 323.947 867.548 330.746 867.457 332.599C866.643 352.359 864.356 372.03 860.614 391.448L846.224 383.1L837.408 377.889C837.59 365.079 837.704 352.268 837.745 339.457C847.455 333.769 857.483 328.209 867.287 322.656Z" fill="#9CB7EE"/>
<path d="M706.057 526.437C710.329 528.686 715.331 531.787 719.565 534.268L719.205 572.822C709.378 578.181 699.267 584.122 689.493 589.666C684.934 586.887 680.026 584.13 675.395 581.43C687.967 564.51 698.271 546.022 706.057 526.437Z" fill="#375CBF"/>
<path d="M669.397 589.072L684.685 597.979L684.45 618.652C669.113 626.51 653.364 633.534 637.273 639.696L633.645 641.066L621.834 634.148C639.613 621.291 655.609 606.136 669.397 589.072Z" fill="#375CBF"/>
<path d="M654.792 319.169C656.352 319.175 680.179 333.518 683.523 335.485L683.209 366.012C673.87 357.629 665.774 352.35 654.496 346.995C637.622 339.371 624.235 337.361 606.232 336.548C622.486 330.939 638.675 325.145 654.792 319.169Z" fill="#375CBF"/>
<path d="M837.71 207.593C842.523 204.822 847.525 201.844 852.433 199.306L852.782 199.771C858.284 221.403 861.601 239.845 864.517 261.94L847.378 251.92L837.365 246.058C837.562 233.237 837.676 220.415 837.71 207.593Z" fill="#375CBF"/>
<path d="M852.796 199.771C858.299 221.404 861.616 239.846 864.532 261.941L847.393 251.921C849.797 240.943 851.388 228.171 852.297 216.901C852.675 212.209 851.918 203.819 852.796 199.771Z" fill="#9CB7EE"/>
<path d="M824.08 205.238C825.144 205.705 827.064 206.893 828.144 207.516C827.939 220.333 827.822 233.152 827.799 245.971C818.01 251.668 807.956 257.259 798.095 262.859L791.604 259.121L783.932 254.566C799.89 242.096 815.431 223.579 824.08 205.238Z" fill="#375CBF"/>
<path d="M624.838 260.245C644.356 254.734 662.575 249.569 681.858 243.226C654.346 265.241 613.508 282.684 579.309 290.524C581.497 288.585 591.249 282.621 594.32 280.633C604.605 274.005 614.777 267.208 624.838 260.245Z" fill="#9CB7EE"/>
<path d="M295.12 408.833C296.384 409.404 320.166 406.943 324.25 406.928C293.557 424.139 270.337 441.256 246.189 467.139C256.315 442.994 274.236 424.204 295.12 408.833Z" fill="#3359BD"/>
<path d="M717.62 293.754L717.923 293.975C718.495 295.053 718.09 308.247 718.06 310.249C708.831 315.881 697.815 321.79 688.306 327.2C684.519 324.792 679.733 322.172 675.794 319.882L666.785 314.556C683.925 308.11 700.879 301.173 717.62 293.754Z" fill="#375CBF"/>
<path d="M723.864 581.209C726.716 582.576 732.199 585.999 735.13 587.715C724.36 595.414 713.223 602.59 701.756 609.209L694.152 613.568L694.243 598.095L723.864 581.209Z" fill="#375CBF"/>
<path d="M839 156.66C840.799 158.604 848.66 184.824 850.061 189.493L836.826 196.967L832.967 199.192L828.15 196.312C833.255 184.54 837.08 169.265 839 156.66Z" fill="#244392"/>
<path d="M276.223 499.585C280.536 499.491 285.137 499.589 289.477 499.615C281.216 505.447 271.742 515.38 265.318 523.121C263.176 525.669 260.985 528.706 258.961 531.391C263.429 520.019 268.821 509.371 276.223 499.585Z" fill="#3359BD"/>
<path d="M613.088 640.227C615.807 641.624 619.192 643.748 621.881 645.335C612.262 648.8 601.814 651.909 592.029 654.844C589.465 655.571 586.897 656.272 584.322 656.946C594.797 651.466 603.2 646.751 613.088 640.227Z" fill="#375CBF"/>
<path d="M707.289 394.941C711.265 397.13 715.567 399.773 719.521 402.083C719.472 406.844 719.453 411.604 719.46 416.36C719.786 420.897 719.721 429.122 719.142 433.503C718.957 431.936 718.559 429.497 718.756 428.016C716.646 417.015 712.988 404.674 707.289 394.941Z" fill="#375CBF"/>
<path d="M718.78 428.022C719.484 425.269 719.212 419.718 719.484 416.366C719.81 420.903 719.746 429.128 719.166 433.51C718.981 431.942 718.583 429.503 718.78 428.022Z" fill="#375CBF"/>
<path d="M255.154 516.503L255.386 516.696C255.197 517.26 253.099 522.176 252.885 522.486C251.269 524.842 247.364 539.641 246.431 540.296L246.048 539.47L243.48 526.247C247.225 522.471 250.844 519.574 255.154 516.503Z" fill="#9CB7EE"/>
<path d="M376.286 334.496C376.958 334.65 377.834 335.189 378.586 335.154C381.957 334.996 393.987 328.161 396.522 329.238C391.867 331.314 386.388 333.292 381.563 335.104C368.188 340.128 355.921 347.244 343.082 353.197C353.118 345.629 364.914 339.782 376.286 334.496Z" fill="#3359BD"/>
<path d="M831.066 148.304C831.1 150.224 829.926 156.636 829.559 158.818L821.701 160.811L821.645 160.442C824.814 156.379 827.999 152.458 831.066 148.304Z" fill="#244392"/>
</g>
<path d="M1094.83 254.829C1099.77 255.083 1105.38 266.574 1107.67 270.566C1119.55 267.79 1131.46 264.935 1143.49 262.827C1149.34 261.802 1155.4 260.707 1161.35 260.74C1164.31 260.756 1167.28 261.169 1170.06 262.189C1177.8 265.028 1183.34 271.713 1187.03 278.849C1188.06 280.847 1188.89 283.56 1190.36 285.257C1191.58 286.678 1193.48 287.84 1194.96 288.994C1200.08 292.968 1205.15 297.278 1207.88 303.319C1212.56 313.689 1211.1 326.365 1207.15 336.702C1198.96 358.152 1171.03 394.666 1149.83 404.115C1141.65 407.765 1131.84 407.419 1123.53 404.226C1118.3 402.215 1113.83 398.766 1109.16 395.744C1107.51 394.679 1105.68 393.86 1104.19 392.567C1103.34 391.832 1102.6 390.966 1102.17 389.916C1101.71 388.76 1101.69 387.419 1102.19 386.271C1104.76 380.449 1116.68 386.121 1121.74 386.611C1125.51 386.976 1129.32 386.305 1132.85 384.985C1152.21 377.738 1175.44 347.424 1183.83 328.823C1187.63 320.4 1190.77 309.724 1187.28 300.711C1185.38 295.825 1181.61 292.39 1176.86 290.312C1156.69 281.493 1120.78 291.684 1100.95 299.513C1099.58 304.071 1098.16 310.829 1096.98 315.614C1095.03 323.348 1092.95 331.053 1090.77 338.724C1088.35 347.223 1085.78 355.676 1083.05 364.077C1081.82 367.914 1080.41 371.685 1079.31 375.554C1104.9 413.73 1133.27 449.974 1164.17 483.995C1178.53 499.812 1193.92 515.973 1210.44 529.573C1217.11 535.06 1228.45 543.548 1237.26 544.172C1241.97 544.425 1245.99 542.794 1249.96 540.322C1253.25 538.277 1258.38 533.173 1262.41 536.414C1262.9 536.807 1263.61 538.254 1263.47 538.891C1261.28 548.636 1253.01 558.465 1246.73 566.144C1229.67 586.087 1215.47 571.488 1200.88 558.352C1195.48 553.48 1190.15 548.523 1184.91 543.482C1152.29 511.762 1122.1 477.652 1094.56 441.435C1086.55 430.986 1076.93 418.519 1069.56 407.646C1059.39 441.127 1046.29 474.036 1032.68 506.276C1028.96 513.949 1025.91 523.431 1020.65 530.156C1015.2 537.131 1007.06 527.66 1003.03 524.219C992.734 515.436 999.416 507.029 1003.04 496.955C1005.63 489.722 1008.33 482.477 1010.21 475.03C1010.96 472.137 1009.02 461.277 1014.57 461.283C1017.81 462.017 1023.12 470.53 1025.18 473.598C1033.9 454.523 1041.92 435.138 1049.23 415.482C1052.11 407.874 1055.38 399.388 1057.91 391.687C1046.45 372.402 1039.43 368.736 1065.88 365.949C1068.24 359.757 1070.61 351.742 1072.53 345.35C1076.48 332.198 1080.21 318.979 1083.71 305.701C1070.8 311.028 1058.13 315.592 1045.18 321.848C1027.22 330.521 1006.75 343.995 996.191 361.431C989.797 371.989 995.951 388.205 999.229 398.961C1000.98 404.698 1004.21 412.241 993.766 409.106C992.09 408.609 988.847 403.322 987.879 401.785C979.914 389.208 973.636 375.638 969.207 361.424C967.507 355.953 968.093 352.162 970.837 347.086C974.649 340.035 981.301 334.137 987.331 329.001C1016.9 303.819 1051.63 288.866 1088.26 277.434C1090.6 270.662 1090.35 258.618 1094.83 254.829Z" fill="#222222"/>
<path d="M1474.36 336.635C1478.21 336.623 1488.79 335.782 1491.47 338.591C1492.3 340.469 1491.03 342.925 1490.92 344.872C1490.2 357.332 1491.46 370.151 1490.96 382.596C1490.83 386.329 1490.36 390.042 1489.56 393.691C1487.52 402.697 1483.12 409.431 1475.24 414.373C1458.32 424.979 1442.55 421.061 1424.47 416.939C1418.38 429.502 1409.31 470.437 1412.62 483.757C1413.08 485.618 1413.98 487.46 1415.72 488.432C1419.29 490.429 1425.05 487.952 1428.48 486.39C1445.44 478.64 1460.65 464.963 1474.17 452.328C1476.91 449.771 1487.38 438.599 1490.18 437.869C1491.54 437.517 1493.7 437.581 1494.88 438.372C1495.43 438.744 1495.73 439.271 1495.82 439.928C1496.37 444.252 1487.64 453.266 1484.9 456.63C1472.19 471.947 1455.63 491.591 1438.36 501.945C1433.62 504.794 1428.15 506.304 1422.72 504.625C1415.42 502.364 1411.02 497.863 1405.17 493.57C1400.31 490.363 1394.82 487.876 1391.9 482.471C1388.6 476.365 1390.47 468.581 1391.52 462.004C1394.26 444.855 1399.11 428.283 1404.38 411.769C1402.67 410.764 1393.41 405.493 1399.1 402.222C1400.98 401.138 1405.67 402.634 1407.74 403.615C1414.93 387.608 1434.17 345.313 1450.43 338.721C1456.82 336.13 1465.04 340.883 1470.91 343.342C1470.68 340.146 1470.75 337.641 1474.36 336.635ZM1428.41 408.933C1430.51 409.266 1431.93 409.458 1434.06 409.597C1444.51 410.391 1455.75 411.306 1464.23 403.905C1472.44 396.441 1471.34 385.304 1471.13 375.316C1471 369.088 1471.36 363.026 1470.76 356.853C1470.55 354.607 1469.96 352.595 1467.45 352.346C1455.11 356.607 1441.98 378.683 1436.62 389.816C1433.49 396.306 1431.21 402.478 1428.41 408.933Z" fill="#222222"/>
<path d="M1356.42 343.712C1361.08 343.454 1360.35 348.644 1357.9 349.973C1349.26 354.653 1337.73 359.564 1336.02 370.689C1334.91 377.883 1338.29 388.304 1340.38 395.362C1343 404.058 1345.73 412.718 1348.57 421.342C1353.54 436.782 1361.96 459.293 1351.9 474.374C1347.01 481.721 1339.07 485.444 1331.05 488.391C1328.72 492.971 1327.25 498.222 1322.69 501.364C1313.65 507.601 1299.55 504.397 1289.45 502.868L1271.44 500.101C1270.27 499.914 1269.61 499.659 1268.68 499.074C1262.73 495.347 1267.22 489.988 1272.28 488.886C1275.6 488.051 1279.03 488.045 1282.44 487.721C1293.65 486.654 1304.81 485.165 1315.95 483.516C1321.73 482.625 1326.35 479.995 1329.74 475.208C1336.67 465.491 1333.93 454.45 1331.07 443.938C1325.58 423.728 1315.33 405.296 1311.23 384.675C1307.81 367.483 1320.2 356.227 1334.58 350.255C1341.52 347.378 1349 344.983 1356.42 343.712Z" fill="#222222"/>
<path d="M1251.2 343.405C1256.53 342.924 1257.88 345.639 1262.21 347.565C1264.63 348.326 1267.14 348.988 1269.6 349.651C1275.72 351.303 1276.78 358.015 1276.05 363.775C1274.61 375.069 1271.59 386.604 1268.61 397.652C1263.31 417.03 1257.51 436.269 1251.23 455.348C1254.1 452.384 1256.85 449.298 1259.46 446.098C1262.09 442.895 1265.15 438.143 1268.11 435.584C1270.16 433.806 1272.29 436.66 1270.58 439.797C1260 459.217 1246.17 476.858 1237.99 497.583C1236.68 500.927 1236.01 502.925 1232.62 504.403C1232.05 504.482 1231.49 504.527 1230.92 504.543C1225.36 504.724 1216.57 500.1 1212.54 496.323C1213.3 493.47 1217.22 486.587 1218.68 483.577C1220.97 478.839 1222.55 475.049 1224.45 470.144C1231.99 450.191 1238.42 429.834 1243.71 409.168C1245.63 401.828 1255.2 363.769 1250.85 358.936C1246.66 357.415 1232.1 376.93 1226.78 376.998C1222.54 374.903 1231.41 364.727 1233.28 362.558C1237.67 357.445 1245.23 345.968 1251.2 343.405Z" fill="#222222"/>
<path d="M1286.67 275.68C1291.21 275.302 1296.39 280.049 1300.15 282.113C1304.98 284.589 1307.86 289.408 1303.63 294.085C1296.21 302.298 1285.88 310.73 1274.65 312.313C1268.9 313.059 1259.82 310.507 1255.89 306.025C1255.36 305.421 1255.2 304.408 1255.33 303.635C1255.61 301.944 1257.36 303.008 1258.36 302.172C1264.12 297.264 1269.63 292.082 1275.1 286.868C1278.57 283.552 1282.72 278.059 1286.67 275.68Z" fill="#222222"/>
<path d="M1380.75 337.103C1382 337.044 1383.14 337.088 1384.32 337.618C1385.64 338.22 1386.45 339.27 1386.91 340.63C1389.2 347.421 1384.42 372.288 1381.02 379.158C1378.58 384.099 1371.82 385.248 1366.99 386.916C1365.55 387.318 1363.5 388.054 1362.1 387.282C1360.23 386.248 1360.65 382.227 1360.98 380.471C1362.47 372.423 1364.66 364.524 1365.21 356.312C1365.45 353.182 1363.93 347.247 1365.94 344.546C1368.23 341.458 1377.12 337.984 1380.75 337.103Z" fill="#222222"/>
<path d="M1022.57 218.695C1024.14 219.022 1028.18 221.456 1028.4 223.106L1028.01 223.442C1026.89 223.621 1025.92 223.192 1024.8 222.849L1024.66 222.941C1016.91 228.083 1011.24 251.532 1009.39 260.331C1012.4 254.339 1016.77 247.766 1022.25 243.783C1023.26 244.265 1025.93 245.417 1026.25 246.254C1027.69 249.901 1024.68 258.716 1023.62 262.067C1024.81 260.462 1025.37 259.624 1026.9 258.284L1027.31 258.447L1027.34 258.172L1027.36 258.188C1027 260.662 1023.21 265.389 1022 268.237L1021.89 268.509C1021.42 269.581 1021.26 269.827 1020.2 270.147C1019.09 270.018 1018.37 269.465 1017.39 268.884C1019.02 264.378 1024.14 251.665 1023.07 247.081L1022.74 246.887C1018.75 248.631 1012.82 258.277 1010.87 262.348C1009.93 264.321 1008.82 267.424 1007.7 269.166L1007.55 269.384C1004.64 267.541 1004.34 267.244 1005.1 263.612C1007.33 252.859 1013.92 224.642 1022.57 218.695Z" fill="#222222"/>
<path d="M1007.63 227.514C1008.77 227.471 1009.67 227.389 1010.56 228.106C1011.26 229.076 1011.63 230.786 1011.5 231.964C1010.13 233.432 1000.11 234.009 997.603 234.257C993.025 244.317 990.257 256.16 987.256 266.793C986.177 270.618 985.818 270.222 982.186 268.926C982.155 265.958 982.383 260.174 984.085 257.807C984.803 257.269 985.205 257.349 986.118 257.33L986.454 257.325C987.778 253.104 989.14 248.896 990.541 244.7C991.637 241.37 992.759 238.048 993.907 234.736C990.068 234.941 983.949 235.953 980.399 237.436C978.072 238.409 977.109 239.411 976.242 241.708C976.662 243.655 978.602 246.929 978.305 248.256L977.775 248.393C975.935 247.437 973.458 242.703 973.085 240.585C972.15 235.287 977.159 233.893 981.166 232.933C986.011 231.771 990.754 231.171 995.697 230.61L997.084 228.464C997.978 228.95 998.797 229.604 999.614 230.216C1001.32 230.016 1003.03 229.776 1004.73 229.498C1005.76 228.445 1006.15 227.904 1007.63 227.514Z" fill="#222222"/>
<path d="M1039.02 243.451C1039.52 243.514 1040.97 243.944 1041.35 243.885C1043.1 243.612 1043.56 243.489 1045.38 243.57C1045.31 252.791 1046.44 257.821 1034.86 256.018C1034.19 258.236 1032.01 265.665 1033.86 267.162C1037.68 267.627 1043.27 259.35 1045.9 258.546C1046.64 260.634 1041.83 264.711 1040.61 266.433C1037.53 270.77 1033.32 270.25 1030.04 266.611C1028.18 264.558 1031.85 256.954 1031.54 255.269C1031.07 254.878 1030.87 254.788 1030.74 254.196L1030.99 253.807C1031.24 253.82 1032.37 253.851 1032.49 253.586C1034.35 249.532 1035.56 246.467 1039.02 243.451ZM1036.32 254.897C1042.65 255.065 1042.64 251.686 1041.88 246.426C1041.51 246.088 1041.71 246.147 1041.29 246.06C1039.25 247.83 1036.09 252.157 1035.8 254.699L1036.32 254.897Z" fill="#222222"/>
<path d="M1293.78 581.179V535.777H1308.44C1313.71 535.777 1318.06 536.706 1321.48 538.566C1324.94 540.425 1327.49 543.063 1329.13 546.479C1330.82 549.851 1331.66 553.873 1331.66 558.543C1331.66 563.126 1330.82 567.126 1329.13 570.542C1327.49 573.914 1324.94 576.53 1321.48 578.39C1318.06 580.249 1313.71 581.179 1308.44 581.179H1293.78ZM1301.56 574.563H1308.05C1311.98 574.563 1315.08 573.936 1317.32 572.682C1319.62 571.385 1321.24 569.547 1322.19 567.169C1323.18 564.748 1323.68 561.872 1323.68 558.543C1323.68 555.17 1323.18 552.294 1322.19 549.916C1321.24 547.495 1319.62 545.635 1317.32 544.338C1315.08 542.998 1311.98 542.328 1308.05 542.328H1301.56V574.563ZM1358.07 581.179V535.777H1365.85V581.179H1358.07ZM1413.57 581.957C1409.29 581.957 1405.53 580.984 1402.29 579.038C1399.09 577.093 1396.6 574.39 1394.83 570.931C1393.05 567.428 1392.17 563.342 1392.17 558.672C1392.17 554.046 1393.08 549.959 1394.89 546.414C1396.71 542.825 1399.3 540.036 1402.68 538.047C1406.09 536.015 1410.13 534.998 1414.8 534.998C1420.08 534.998 1424.45 536.274 1427.91 538.825C1431.41 541.333 1433.68 544.836 1434.72 549.332H1425.96C1425.31 547.084 1424.04 545.333 1422.13 544.079C1420.23 542.825 1417.77 542.198 1414.74 542.198C1411.67 542.198 1409.03 542.868 1406.83 544.209C1404.66 545.506 1403 547.408 1401.83 549.916C1400.71 552.381 1400.15 555.321 1400.15 558.737C1400.15 562.153 1400.71 565.093 1401.83 567.558C1403 570.023 1404.64 571.904 1406.76 573.201C1408.88 574.455 1411.37 575.082 1414.22 575.082C1418.46 575.082 1421.66 573.893 1423.82 571.515C1425.98 569.136 1427.26 566.045 1427.65 562.24H1415.91V556.337H1435.49V581.179H1428.36L1427.71 574.952C1426.72 576.422 1425.57 577.698 1424.27 578.779C1422.98 579.817 1421.44 580.617 1419.67 581.179C1417.94 581.698 1415.91 581.957 1413.57 581.957ZM1462.7 581.179V535.777H1470.48V581.179H1462.7ZM1508.99 581.179V542.068H1495.63V535.777H1530.07V542.068H1516.71V581.179H1508.99ZM1547.44 581.179L1564.04 535.777H1572.73L1589.34 581.179H1581.1L1568.32 544.857L1555.54 581.179H1547.44ZM1554.83 570.477L1556.91 564.315H1579.28L1581.36 570.477H1554.83ZM1614.39 581.179V535.777H1622.17V575.082H1642.41V581.179H1614.39Z" fill="#222222"/>
<defs>
<clipPath id="clip0_3521_2">
<rect width="644.921" height="546" fill="white" transform="translate(232 127)"/>
</clipPath>
</defs>
</svg>
